<?xml version="1.0" encoding="UTF-8"?>
<svg width="2620" height="1370" xmlns="http://www.w3.org/2000/svg">
  <style>
    .sheet { fill: white; stroke: black; stroke-width: 2; }
    .panel { fill: lightblue; stroke: darkblue; stroke-width: 1; opacity: 0.8; }
    .text { font-family: Arial; font-size: 40px; fill: black; }
    .label { font-family: Arial; font-size: 30px; fill: darkblue; }
    .dim-line { stroke: #333; stroke-width: 1; fill: none; }
    .dim-text { font-family: Arial; font-size: 12px; fill: #333; }
  </style>
  <!-- Sheet 1 -->
  <rect x="170" y="120" width="2400" height="1200" class="sheet"/>
  <text x="170" y="40" class="text">Sheet 1: 2400×1200mm (8.3%)</text>
  <line x1="170" y1="120" x2="170" y2="98" class="dim-line"/>
  <line x1="170" y1="62" x2="170" y2="70" class="dim-line"/>
  <line x1="170" y1="90" x2="170" y2="98" class="dim-line"/>
  <line x1="770" y1="120" x2="770" y2="98" class="dim-line"/>
  <line x1="770" y1="62" x2="770" y2="70" class="dim-line"/>
  <line x1="770" y1="90" x2="770" y2="98" class="dim-line"/>
  <line x1="2570" y1="120" x2="2570" y2="98" class="dim-line"/>
  <line x1="2570" y1="62" x2="2570" y2="70" class="dim-line"/>
  <line x1="2570" y1="90" x2="2570" y2="98" class="dim-line"/>
  <line x1="170" y1="66" x2="770" y2="66" class="dim-line"/>
  <line x1="170" y1="94" x2="770" y2="94" class="dim-line"/>
  <text x="470.0" y="60" text-anchor="middle" class="dim-text">600</text>
  <line x1="770" y1="66" x2="2570" y2="66" class="dim-line"/>
  <line x1="770" y1="94" x2="2570" y2="94" class="dim-line"/>
  <text x="1670.0" y="60" text-anchor="middle" class="dim-text">1800</text>
  <text x="170" y="88" text-anchor="middle" class="dim-text">0</text>
  <text x="770" y="88" text-anchor="middle" class="dim-text">600</text>
  <text x="2570" y="88" text-anchor="middle" class="dim-text">2400</text>
  <line x1="170" y1="120" x2="130" y2="120" class="dim-line"/>
  <line x1="78" y1="120" x2="86" y2="120" class="dim-line"/>
  <line x1="122" y1="120" x2="130" y2="120" class="dim-line"/>
  <line x1="170" y1="520" x2="130" y2="520" class="dim-line"/>
  <line x1="78" y1="520" x2="86" y2="520" class="dim-line"/>
  <line x1="122" y1="520" x2="130" y2="520" class="dim-line"/>
  <line x1="170" y1="1320" x2="130" y2="1320" class="dim-line"/>
  <line x1="78" y1="1320" x2="86" y2="1320" class="dim-line"/>
  <line x1="122" y1="1320" x2="130" y2="1320" class="dim-line"/>
  <line x1="82" y1="120" x2="82" y2="520" class="dim-line"/>
  <line x1="126" y1="120" x2="126" y2="520" class="dim-line"/>
  <text x="76" y="320.0" text-anchor="middle" class="dim-text" transform="rotate(-90 76 320.0)">400</text>
  <line x1="82" y1="520" x2="82" y2="1320" class="dim-line"/>
  <line x1="126" y1="520" x2="126" y2="1320" class="dim-line"/>
  <text x="76" y="920.0" text-anchor="middle" class="dim-text" transform="rotate(-90 76 920.0)">800</text>
  <text x="120" y="120" text-anchor="middle" class="dim-text" transform="rotate(-90 120 120)">0</text>
  <text x="120" y="520" text-anchor="middle" class="dim-text" transform="rotate(-90 120 520)">400</text>
  <text x="120" y="1320" text-anchor="middle" class="dim-text" transform="rotate(-90 120 1320)">1200</text>
  <rect x="170" y="120" width="600" height="400" class="panel"/>
  <text x="470.0" y="320.0" class="label" text-anchor="middle">Panel 1 (600×400)</text>
</svg>